<svg data-v-fde0c5aa="" xmlns="http://www.w3.org/2000/svg" viewBox="0 0 300 300" class="iconAboveSlogan"><!----><defs data-v-fde0c5aa=""><!----></defs><rect data-v-fde0c5aa="" fill="transparent" x="0" y="0" width="300px" height="300px" class="logo-background-square"></rect><defs data-v-fde0c5aa=""><!----></defs><g data-v-fde0c5aa="" id="c5964c30-e0e5-4113-944b-7818bac78584" fill="#000000" transform="matrix(7.289013862609863,0,0,7.289013862609863,21.093797680159096,130.33578057092268)"><path d="M4.16 5.24L4.16 5.52L4.16 5.52Q3.65 5.54 3.42 5.63L3.42 5.63L3.42 5.63Q3.19 5.71 3.11 5.95L3.11 5.95L3.11 5.95Q3.02 6.19 3.02 6.72L3.02 6.72L3.02 13.66L3.02 13.66Q3.02 14.20 3.11 14.43L3.11 14.43L3.11 14.43Q3.19 14.67 3.42 14.75L3.42 14.75L3.42 14.75Q3.65 14.83 4.16 14.83L4.16 14.83L5.18 14.83L5.18 14.83Q6.05 14.83 6.50 14.58L6.50 14.58L6.50 14.58Q6.96 14.34 7.17 13.79L7.17 13.79L7.17 13.79Q7.38 13.24 7.48 12.21L7.48 12.21L7.80 12.21L7.80 12.21Q7.76 12.64 7.76 13.36L7.76 13.36L7.76 13.36Q7.76 14.15 7.85 15.15L7.85 15.15L7.85 15.15Q6.90 15.11 4.65 15.11L4.65 15.11L4.65 15.11Q1.96 15.11 0.59 15.15L0.59 15.15L0.59 14.87L0.59 14.87Q1.09 14.84 1.32 14.76L1.32 14.76L1.32 14.76Q1.55 14.67 1.64 14.43L1.64 14.43L1.64 14.43Q1.72 14.20 1.72 13.66L1.72 13.66L1.72 6.72L1.72 6.72Q1.72 6.19 1.64 5.95L1.64 5.95L1.64 5.95Q1.55 5.71 1.32 5.63L1.32 5.63L1.32 5.63Q1.09 5.54 0.59 5.52L0.59 5.52L0.59 5.24L0.59 5.24Q1.18 5.28 2.38 5.28L2.38 5.28L2.38 5.28Q3.50 5.28 4.16 5.24L4.16 5.24ZM21.11 5.04L21.11 5.04Q21.99 5.04 22.58 5.55L22.58 5.55L22.58 5.55Q23.16 6.06 23.16 6.93L23.16 6.93L23.16 6.93Q23.16 7.60 22.79 8.10L22.79 8.10L22.79 8.10Q22.43 8.60 21.83 8.89L21.83 8.89L21.83 8.89Q21.29 9.14 19.75 9.62L19.75 9.62L19.75 9.62Q20.54 9.95 20.91 10.58L20.91 10.58L20.91 10.58Q21.28 11.20 21.28 12.00L21.28 12.00L21.28 12.00Q21.28 12.87 20.76 13.64L20.76 13.64L20.76 13.64Q20.24 14.41 19.28 14.88L19.28 14.88L19.28 14.88Q18.31 15.34 17.01 15.34L17.01 15.34L17.01 15.34Q15.79 15.34 14.75 14.92L14.75 14.92L14.75 14.92Q13.71 14.49 13.09 13.70L13.09 13.70L13.09 13.70Q12.47 12.91 12.47 11.86L12.47 11.86L12.47 11.86Q12.47 10.93 12.93 10.30L12.93 10.30L12.93 10.30Q13.38 9.66 13.97 9.33L13.97 9.33L13.97 9.33Q14.56 9.00 15.06 8.88L15.06 8.88L15.06 8.88Q14.38 8.58 14.01 8.09L14.01 8.09L14.01 8.09Q13.65 7.60 13.65 7.07L13.65 7.07L13.65 7.07Q13.65 6.61 13.92 6.21L13.92 6.21L13.92 6.21Q14.20 5.81 14.73 5.56L14.73 5.56L14.73 5.56Q15.27 5.32 16.02 5.32L16.02 5.32L16.02 5.32Q16.95 5.32 17.47 5.74L17.47 5.74L17.47 5.74Q17.72 5.95 17.86 6.21L17.86 6.21L17.86 6.21Q17.99 6.47 17.99 6.71L17.99 6.71L17.99 6.71Q17.99 7.04 17.75 7.24L17.75 7.24L17.75 7.24Q17.51 7.45 17.21 7.45L17.21 7.45L17.21 7.45Q16.91 7.45 16.70 7.26L16.70 7.26L16.70 7.26Q16.48 7.07 16.48 6.75L16.48 6.75L16.48 6.75Q16.48 6.44 16.69 6.22L16.69 6.22L16.69 6.22Q16.90 6.01 17.22 5.98L17.22 5.98L17.22 5.98Q17.15 5.80 16.86 5.66L16.86 5.66L16.86 5.66Q16.58 5.53 16.16 5.53L16.16 5.53L16.16 5.53Q15.43 5.53 14.98 5.97L14.98 5.97L14.98 5.97Q14.53 6.41 14.53 7.20L14.53 7.20L14.53 7.20Q14.53 8.13 15.25 8.79L15.25 8.79L15.25 8.79Q15.74 8.71 16.11 8.71L16.11 8.71L16.11 8.71Q16.37 8.71 16.52 8.79L16.52 8.79L16.52 8.79Q16.67 8.88 16.67 9.03L16.67 9.03L16.67 9.03Q16.67 9.16 16.57 9.23L16.57 9.23L16.57 9.23Q16.46 9.30 16.28 9.30L16.28 9.30L16.28 9.30Q16.06 9.30 15.82 9.21L15.82 9.21L15.82 9.21Q15.58 9.13 15.26 8.99L15.26 8.99L15.26 8.99Q13.44 9.53 13.44 11.28L13.44 11.28L13.44 11.28Q13.44 12.22 13.93 12.91L13.93 12.91L13.93 12.91Q14.42 13.59 15.27 13.95L15.27 13.95L15.27 13.95Q16.13 14.31 17.19 14.31L17.19 14.31L17.19 14.31Q18.19 14.31 19.03 13.99L19.03 13.99L19.03 13.99Q19.88 13.68 20.38 13.10L20.38 13.10L20.38 13.10Q20.87 12.52 20.87 11.75L20.87 11.75L20.87 11.75Q20.87 11.19 20.58 10.61L20.58 10.61L20.58 10.61Q20.29 10.04 19.46 9.72L19.46 9.72L19.46 9.72Q18.37 10.05 17.85 10.25L17.85 10.25L17.85 10.25Q17.26 10.47 16.94 10.76L16.94 10.76L16.94 10.76Q16.62 11.05 16.62 11.47L16.62 11.47L16.62 11.47Q16.62 11.97 17.03 12.28L17.03 12.28L17.03 12.28Q17.44 12.59 17.91 12.59L17.91 12.59L17.91 12.59Q18.14 12.59 18.42 12.50L18.42 12.50L18.42 12.50Q18.70 12.42 18.75 12.28L18.75 12.28L18.75 12.28Q18.48 12.22 18.28 12.05L18.28 12.05L18.28 12.05Q18.09 11.89 18.09 11.56L18.09 11.56L18.09 11.56Q18.09 11.23 18.30 11.03L18.30 11.03L18.30 11.03Q18.52 10.84 18.86 10.84L18.86 10.84L18.86 10.84Q19.19 10.84 19.40 11.05L19.40 11.05L19.40 11.05Q19.60 11.26 19.60 11.59L19.60 11.59L19.60 11.59Q19.60 12.15 19.08 12.47L19.08 12.47L19.08 12.47Q18.56 12.80 17.93 12.80L17.93 12.80L17.93 12.80Q17.25 12.80 16.72 12.38L16.72 12.38L16.72 12.38Q16.20 11.97 16.20 11.16L16.20 11.16L16.20 11.16Q16.20 10.44 16.68 9.95L16.68 9.95L16.68 9.95Q17.16 9.45 18.13 9.11L18.13 9.11L19.12 8.82L19.12 8.82Q19.96 8.58 20.52 8.40L20.52 8.40L20.52 8.40Q21.08 8.22 21.55 8.01L21.55 8.01L21.55 8.01Q22.22 7.70 22.48 7.38L22.48 7.38L22.48 7.38Q22.75 7.06 22.75 6.66L22.75 6.66L22.75 6.66Q22.75 6.08 22.27 5.66L22.27 5.66L22.27 5.66Q21.78 5.25 21.13 5.25L21.13 5.25L21.13 5.25Q20.78 5.25 20.71 5.38L20.71 5.38L20.71 5.38Q20.89 5.46 20.99 5.65L20.99 5.65L20.99 5.65Q21.10 5.84 21.10 6.02L21.10 6.02L21.10 6.02Q21.10 6.31 20.87 6.51L20.87 6.51L20.87 6.51Q20.64 6.71 20.31 6.71L20.31 6.71L20.31 6.71Q20.02 6.71 19.80 6.52L19.80 6.52L19.80 6.52Q19.57 6.34 19.57 6.01L19.57 6.01L19.57 6.01Q19.57 5.50 20.04 5.27L20.04 5.27L20.04 5.27Q20.51 5.04 21.11 5.04L21.11 5.04ZM34.68 13.36L34.68 13.36Q34.68 14.15 34.78 15.15L34.78 15.15L34.78 15.15Q33.82 15.11 31.57 15.11L31.57 15.11L31.57 15.11Q28.88 15.11 27.51 15.15L27.51 15.15L27.51 14.87L27.51 14.87Q28.01 14.84 28.25 14.76L28.25 14.76L28.25 14.76Q28.48 14.67 28.56 14.43L28.56 14.43L28.56 14.43Q28.64 14.20 28.64 13.66L28.64 13.66L28.64 6.72L28.64 6.72Q28.64 6.19 28.56 5.95L28.56 5.95L28.56 5.95Q28.48 5.71 28.25 5.63L28.25 5.63L28.25 5.63Q28.01 5.54 27.51 5.52L27.51 5.52L27.51 5.24L27.51 5.24Q28.88 5.28 31.57 5.28L31.57 5.28L31.57 5.28Q33.63 5.28 34.50 5.24L34.50 5.24L34.50 5.24Q34.40 6.16 34.40 6.89L34.40 6.89L34.40 6.89Q34.40 7.43 34.44 7.76L34.44 7.76L34.12 7.76L34.12 7.76Q34.02 6.85 33.87 6.40L33.87 6.40L33.87 6.40Q33.71 5.96 33.35 5.76L33.35 5.76L33.35 5.76Q32.98 5.56 32.24 5.56L32.24 5.56L31.08 5.56L31.08 5.56Q30.58 5.56 30.34 5.63L30.34 5.63L30.34 5.63Q30.11 5.71 30.03 5.95L30.03 5.95L30.03 5.95Q29.95 6.19 29.95 6.72L29.95 6.72L29.95 10.02L30.87 10.02L30.87 10.02Q31.36 10.02 31.63 9.79L31.63 9.79L31.63 9.79Q31.89 9.56 31.98 9.25L31.98 9.25L31.98 9.25Q32.07 8.93 32.13 8.46L32.13 8.46L32.17 8.18L32.49 8.18L32.49 8.18Q32.45 8.76 32.45 9.49L32.45 9.49L32.45 10.16L32.45 10.16Q32.45 10.88 32.54 12.15L32.54 12.15L32.21 12.15L32.21 12.15Q32.20 12.05 32.13 11.47L32.13 11.47L32.13 11.47Q32.06 10.89 31.75 10.60L31.75 10.60L31.75 10.60Q31.43 10.30 30.87 10.30L30.87 10.30L29.95 10.30L29.95 13.66L29.95 13.66Q29.95 14.20 30.03 14.43L30.03 14.43L30.03 14.43Q30.11 14.67 30.34 14.75L30.34 14.75L30.34 14.75Q30.58 14.83 31.08 14.83L31.08 14.83L32.10 14.83L32.10 14.83Q32.97 14.83 33.42 14.59L33.42 14.59L33.42 14.59Q33.88 14.36 34.09 13.85L34.09 13.85L34.09 13.85Q34.30 13.34 34.40 12.35L34.40 12.35L34.72 12.35L34.72 12.35Q34.68 12.73 34.68 13.36L34.68 13.36Z"></path></g><defs data-v-fde0c5aa=""><linearGradient data-v-fde0c5aa="" gradientTransform="rotate(25)" id="706de925-950c-47a6-9c89-6875a49c8f4b" x1="0%" y1="0%" x2="100%" y2="0%"><stop data-v-fde0c5aa="" offset="0%" stop-color="#843F47" stop-opacity="1"></stop><stop data-v-fde0c5aa="" offset="100%" stop-color="#D0978B" stop-opacity="1"></stop></linearGradient></defs><g data-v-fde0c5aa="" id="efa6857f-e5e9-4a89-aa76-fe6b257ee305" stroke="url(#706de925-950c-47a6-9c89-6875a49c8f4b)" fill="none" transform="matrix(0.8079437613487244,0,0,0.8079437613487244,187.1654135756624,69.08597584182274)"><switch><g><path d="M-192 0H-7v99h-185zM0-36h100v30H0z"></path><text transform="translate(66 -19.5)" font-family="'Helvetica'" font-size="2.4">http://thenounproject.com</text><text transform="translate(7.166 -24.5)"><tspan x="0" y="0" font-family="'Helvetica-Bold'" font-size="6.158">The Noun Project</tspan><tspan x="1.12" y="4.8" font-family="'Helvetica-Bold'" font-size="4">Icon Template</tspan></text><text transform="translate(-178.5 10.5)" font-family="'Helvetica-Bold'" font-size="6.158">Reminders</text><path stroke-miterlimit="10" d="M8-14.5h10M-179 16.5h17"></path><path d="M-170.802 31.318h8.721v8.642h-8.721z"></path><path d="M-164.455 42.312h4.747v-4.703h-4.747v4.703zm5.189.437h-5.63V37.17h5.63v5.579zm-6.955 1.313h8.279v-8.203h-8.279v8.203zm8.721.438h-9.163v-9.079h9.163V44.5z"></path><path d="M-166.149 44.133l-.143-.142 8.279-8.204.142.142z"></path><path d="M-179 58h35v32.5h-35z"></path><text transform="translate(-179 60.157)"><tspan x="0" y="0" font-family="'Helvetica-Bold'" font-size="3">Strokes</tspan><tspan x="0" y="5" font-family="'Helvetica'" font-size="2.4">Try to keep strokes at 4px</tspan><tspan x="0" y="10" font-family="'Helvetica'" font-size="2.4">Minimum stroke weight is 2px</tspan><tspan x="0" y="14.5" font-family="'Helvetica'" font-size="2.4">For thicker strokes use even </tspan><tspan x="0" y="17.5" font-family="'Helvetica'" font-size="2.4">numbers: 6px, 8px etc.</tspan><tspan x="0" y="22" font-family="'Helvetica-Bold'" font-size="2.4">Remember to expand strokes </tspan><tspan x="0" y="25" font-family="'Helvetica-Bold'" font-size="2.4">before saving as an SVG</tspan></text><path d="M-136.5 58h35v32.5h-35z"></path><text transform="translate(-136.5 60.157)"><tspan x="0" y="0" font-family="'Helvetica-Bold'" font-size="3">Size</tspan><tspan x="0" y="5" font-family="'Helvetica'" font-size="2.4">Cannot be wider or taller than </tspan><tspan x="0" y="8.5" font-family="'Helvetica'" font-size="2.4">100px (artboard size)</tspan><tspan x="0" y="13.5" font-family="'Helvetica'" font-size="2.4">Scale your icon to fill as much of </tspan><tspan x="0" y="16.5" font-family="'Helvetica'" font-size="2.4">the artboard as possible</tspan></text><path d="M-94 58h35v32.5h-35z"></path><text transform="translate(-94 60.157)"><tspan x="0" y="0" font-family="'Helvetica-Bold'" font-size="3">Ungroup</tspan><tspan x="0" y="5" font-family="'Helvetica'" font-size="2.4">If your design has more than one </tspan><tspan x="0" y="8" font-family="'Helvetica'" font-size="2.4">shape, make sure to ungroup</tspan></text><path d="M-50 58h35v32.5h-35z"></path><text transform="translate(-50 60.157)"><tspan x="0" y="0" font-family="'Helvetica-Bold'" font-size="3">Save as</tspan><tspan x="0" y="5" font-family="'Helvetica'" font-size="2.4">Save as .SVG and make sure </tspan><tspan x="0" y="8" font-family="'Helvetica'" font-size="2.4">“Use Artboards” is checked</tspan></text><text transform="matrix(1.0074 0 0 1 -125.542 30.593)" font-family="'Helvetica'" font-size="2.573">100px</text><text transform="matrix(1.0074 0 0 1 -41 39)" font-family="'Helvetica-Bold'" font-size="5.146">.SVG</text><path d="M-126.514 34.815h10.261V45h-10.261zM-126.477 31.766h.522v2.337h-.522zM-116.812 31.766h.523v2.337h-.523z"></path><path d="M-127 32.337h11.233v.572H-127zM-83.805 33.844H-73.5V44h-10.305zM-76.809 28.707h3.308v3.261h-3.308z"></path><path stroke="#FFF" stroke-miterlimit="10" d="M-178.5 22.5h30v30h-30zM-136.5 22.5h30v30h-30zM-93.5 22.5h30v30h-30zM-49.5 22.5h30v30h-30z"></path><g><circle cx="85.547" cy="13.545" r=".95"></circle><circle cx="81.435" cy="16.84" r=".95"></circle><path d="M49.54 35.521h.763v.662c0 .196.073.339.264.339h.561c.217 0 .265-.143.265-.339v-.662h.763a.87.87 0 0 0 .871-.871v-.817a.87.87 0 0 0-.871-.872H49.54a.872.872 0 0 0-.872.872v.817c0 .482.391.871.872.871zM43.383 35.521h.763v.662c0 .196.075.339.264.339h.561c.217 0 .265-.143.265-.339v-.662h.763a.87.87 0 0 0 .871-.871v-.817a.871.871 0 0 0-.871-.872h-2.616a.872.872 0 0 0-.872.872v.817a.872.872 0 0 0 .872.871zM21.165 40.809h-7.52a1.308 1.308 0 0 0 0 2.616h4.837c.136 0 .221-.1.257-.147a8.999 8.999 0 0 1 2.44-2.231c.134-.083.191-.238-.014-.238zM10.312 40.809H8.287c-.914-.038-1.789-1.739-3.837-1.739H2.953c-.817 0-.953.219-.953.872v4.35c0 .653.137.873.953.873H4.45c2.062 0 2.936-1.729 3.857-1.741h2.005a1.307 1.307 0 1 0 0-2.615zM37.297 35.521h.762v.662c0 .196.075.339.265.339h.561c.217 0 .263-.143.263-.339v-.662h.764c.48 0 .872-.389.872-.871v-.817a.872.872 0 0 0-.872-.872h-2.615a.871.871 0 0 0-.872.872v.817c0 .482.39.871.872.871zM95.37 32.526c-2.66 2.176-10.57 8.28-24.405 8.28h-3.327c-.209 0-.198.155-.063.238a8.999 8.999 0 0 1 2.448 2.243c.031.041.084.123.274.123h.668c13.835 0 21.745 6.105 24.405 8.279 1.198.979 2.396.58 2.396-1.09V39.716v-6.1c.001-1.669-1.198-2.069-2.396-1.09zM20.028 43.424a7.801 7.801 0 0 0-2.016 5.229v3.92c0 4.326 3.52 7.846 7.846 7.846h9.279c.158 0 .234-.084.234-.211v-2.207c0-.123-.057-.197-.234-.197h-3.324a2.458 2.458 0 0 1-1.545-.545 2.454 2.454 0 0 1-.925-1.926 2.474 2.474 0 0 1 2.471-2.469h3.324c.149 0 .234-.084.234-.224v-2.185c0-.129-.057-.206-.234-.206h-3.324a5.09 5.09 0 0 0-5.085 5.083c0 .48.07.941.195 1.381a4.993 4.993 0 0 0 .448 1.09h-1.513a5.237 5.237 0 0 1-5.231-5.23v-3.92a5.237 5.237 0 0 1 5.231-5.229h9.279c.164 0 .234-.08.234-.213v-2.187c0-.156-.083-.215-.226-.215h-9.287a7.815 7.815 0 0 0-5.831 2.615zM62.896 40.809h-.686-7.735c-.265 0-.354.089-.354.343v1.907c0 .219.054.365.345.365h8.432a5.236 5.236 0 0 1 5.229 5.229v3.92a5.235 5.235 0 0 1-5.229 5.23h-5.082-3.359a.313.313 0 0 0-.335.271v2.07s.045.273.335.273H62.898c4.325 0 7.845-3.52 7.845-7.846v-3.92a7.797 7.797 0 0 0-2.027-5.242 7.823 7.823 0 0 0-5.82-2.6z"></path><path d="M59.121 51.557c0-.723-.585-1.308-1.307-1.308h-3.359c-.253 0-.335.122-.335.308V52.5c0 .236.1.363.335.363h3.359c.722 0 1.307-.586 1.307-1.306zM39.511 37.61h-1.744c-.721 0-1.307.587-1.307 1.308V63.466c0 .723.586 1.309 1.307 1.309h1.744c.722 0 1.307-.586 1.307-1.309V38.918c0-.721-.585-1.308-1.307-1.308zM45.617 37.61h-1.744c-.722 0-1.307.587-1.307 1.308V63.466c0 .723.585 1.309 1.307 1.309h1.744c.722 0 1.307-.586 1.307-1.309V38.918c0-.721-.585-1.308-1.307-1.308zM51.724 37.61H49.98c-.722 0-1.307.587-1.307 1.308V63.466c0 .723.585 1.309 1.307 1.309h1.744c.723 0 1.307-.586 1.307-1.309V38.918a1.309 1.309 0 0 0-1.307-1.308zM62.461 57.037a.543.543 0 0 0 .544-.543V44.732a.545.545 0 0 0-.544-.545.546.546 0 0 0-.546.545v11.762a.52.52 0 0 0 .049.219.543.543 0 0 0 .497.324z"></path></g></g></switch></g><defs data-v-fde0c5aa=""><!----></defs><g data-v-fde0c5aa="" id="5c0d6b0f-fe2b-4f66-a1e3-3924fff8277d" fill="#000000" transform="matrix(0.7364678978919983,0,0,0.7364678978919983,56.26587887715919,250.5732106071737)"><path d="M0.87 3.64L0.38 3.64L0.39 3.08L3.98 3.08L3.98 3.64L3.34 3.64L3.34 3.64Q2.97 3.64 2.85 3.72L2.85 3.72L2.85 3.72Q2.74 3.80 2.74 4.16L2.74 4.16L2.74 11.22L2.74 11.22Q2.74 11.57 2.83 11.67L2.83 11.67L2.83 11.67Q2.91 11.77 3.21 11.77L3.21 11.77L3.21 11.77Q6.08 11.74 6.73 11.63L6.73 11.63L6.73 11.63Q6.95 11.61 7.03 11.39L7.03 11.39L7.03 11.39Q7.11 11.17 7.31 10.05L7.31 10.05L7.80 10.08L7.33 12.41L0.57 12.41L0.56 11.87L0.95 11.87L0.95 11.87Q1.46 11.87 1.52 11.80L1.52 11.80L1.52 11.80Q1.61 11.72 1.61 11.33L1.61 11.33L1.61 4.09L1.61 4.09Q1.61 3.80 1.46 3.72L1.46 3.72L1.46 3.72Q1.31 3.64 0.87 3.64L0.87 3.64ZM15.54 3.64L15.53 3.08L22.74 3.08L22.74 3.08Q22.76 4.14 22.81 5.28L22.81 5.28L22.26 5.30L22.26 5.30Q22.25 4.66 22.20 4.25L22.20 4.25L22.20 4.25Q22.16 3.89 22.10 3.80L22.10 3.80L22.10 3.80Q22.05 3.71 21.93 3.69L21.93 3.69L21.93 3.69Q21.83 3.68 21.25 3.68L21.25 3.68L18.87 3.68L18.87 3.68Q18.32 3.68 18.18 3.77L18.18 3.77L18.18 3.77Q18.05 3.86 18.05 4.33L18.05 4.33L18.05 6.28L18.05 6.28Q18.05 6.69 18.11 6.76L18.11 6.76L18.11 6.76Q18.18 6.84 18.52 6.84L18.52 6.84L20.63 6.84L20.63 6.84Q20.99 6.84 21.08 6.73L21.08 6.73L21.08 6.73Q21.16 6.63 21.16 6.14L21.16 6.14L21.16 5.61L21.68 5.63L21.68 8.97L21.16 8.97L21.16 8.24L21.16 8.24Q21.16 7.66 21.09 7.57L21.09 7.57L21.09 7.57Q21.01 7.46 20.66 7.46L20.66 7.46L18.56 7.46L18.56 7.46Q18.22 7.46 18.14 7.54L18.14 7.54L18.14 7.54Q18.05 7.63 18.05 7.89L18.05 7.89L18.05 11.20L18.05 11.20Q18.05 11.57 18.14 11.67L18.14 11.67L18.14 11.67Q18.22 11.77 18.50 11.77L18.50 11.77L18.50 11.77Q21.42 11.75 21.94 11.69L21.94 11.69L21.94 11.69Q22.46 11.63 22.54 11.38L22.54 11.38L22.55 11.36L22.56 11.35L22.78 10.17L23.26 10.25L22.91 12.41L15.81 12.41L15.81 11.87L16.18 11.87L16.18 11.87Q16.74 11.87 16.82 11.80L16.82 11.80L16.82 11.80Q16.92 11.72 16.92 11.33L16.92 11.33L16.92 4.24L16.92 4.24Q16.92 3.82 16.77 3.73L16.77 3.73L16.77 3.73Q16.60 3.64 15.94 3.64L15.94 3.64L15.54 3.64ZM31.42 5.35L30.92 5.33L30.92 5.33Q31.04 4.17 31.12 3.08L31.12 3.08L39.20 3.08L39.20 3.08Q39.12 4.13 39.09 4.53L39.09 4.53L39.09 4.53Q39.05 5.26 39.03 5.32L39.03 5.32L38.53 5.30L38.53 5.30Q38.62 4.34 38.62 4.16L38.62 4.16L38.62 4.16Q38.62 3.88 38.47 3.79L38.47 3.79L38.47 3.79Q38.30 3.69 37.90 3.69L37.90 3.69L36.29 3.69L36.29 3.69Q35.79 3.69 35.66 3.79L35.66 3.79L35.66 3.79Q35.57 3.87 35.56 4.36L35.56 4.36L35.56 11.22L35.56 11.22Q35.56 11.66 35.70 11.76L35.70 11.76L35.70 11.76Q35.86 11.87 36.37 11.87L36.37 11.87L36.93 11.87L36.95 12.41L33.26 12.40L33.26 11.87L33.48 11.87L33.48 11.87Q34.15 11.87 34.29 11.79L34.29 11.79L34.29 11.79Q34.43 11.70 34.43 11.28L34.43 11.28L34.43 4.48L34.43 4.48Q34.43 3.92 34.33 3.80L34.33 3.80L34.33 3.80Q34.23 3.69 33.81 3.69L33.81 3.69L32.34 3.69L32.34 3.69Q32.16 3.69 32.09 3.71L32.09 3.71L32.09 3.71Q32.02 3.72 31.91 3.72L31.91 3.72L31.91 3.72Q31.88 3.72 31.77 3.79L31.77 3.79L31.77 3.79Q31.68 3.84 31.66 3.86L31.66 3.86L31.66 3.86Q31.63 3.88 31.59 3.99L31.59 3.99L31.59 3.99Q31.56 4.05 31.53 4.14L31.53 4.14L31.53 4.14Q31.51 4.21 31.49 4.36L31.49 4.36L31.49 4.36Q31.46 4.59 31.46 4.61L31.46 4.61L31.46 4.61Q31.46 4.80 31.45 4.95L31.45 4.95L31.45 4.95Q31.45 5.02 31.44 5.15L31.44 5.15L31.44 5.15Q31.43 5.29 31.42 5.35L31.42 5.35ZM46.90 5.60L46.90 5.60L46.90 5.60Q46.90 5.40 47.24 4.48L47.24 4.48L47.24 4.48Q47.29 4.31 47.43 3.79L47.43 3.79L47.62 3.13L47.62 3.13Q47.68 2.88 47.78 2.63L47.78 2.63L47.78 2.63Q47.88 2.40 48.04 2.26L48.04 2.26L48.04 2.26Q48.19 2.14 48.38 2.14L48.38 2.14L48.38 2.14Q48.60 2.14 48.71 2.29L48.71 2.29L48.71 2.29Q48.80 2.43 48.81 2.60L48.81 2.60L48.81 2.60Q48.81 2.78 48.65 3.13L48.65 3.13L48.65 3.13Q48.56 3.36 48.18 3.99L48.18 3.99L48.18 3.99Q47.93 4.40 47.78 4.69L47.78 4.69L47.78 4.69Q47.74 4.76 47.71 4.83L47.71 4.83L47.71 4.83Q47.69 4.89 47.66 4.95L47.66 4.95L47.66 4.95Q47.63 5.01 47.57 5.11L47.57 5.11L47.57 5.11Q47.46 5.32 47.42 5.41L47.42 5.41L47.42 5.41Q47.41 5.46 47.36 5.53L47.36 5.53L47.36 5.53Q47.31 5.60 47.29 5.61L47.29 5.61L47.29 5.61Q47.24 5.71 47.18 5.74L47.18 5.74L47.18 5.74Q47.13 5.76 47.07 5.76L47.07 5.76L47.07 5.76Q46.90 5.77 46.90 5.60ZM57.03 10.04L57.03 10.04L57.52 9.98L57.71 10.85L57.71 10.85Q57.82 11.33 57.89 11.41L57.89 11.41L57.89 11.41Q57.96 11.49 58.37 11.64L58.37 11.64L58.37 11.64Q59.21 11.95 60.10 11.95L60.10 11.95L60.10 11.95Q60.89 11.95 61.43 11.49L61.43 11.49L61.43 11.49Q61.96 11.04 61.96 10.26L61.96 10.26L61.96 10.26Q61.96 9.65 61.50 9.21L61.50 9.21L61.50 9.21Q61.02 8.76 60.17 8.30L60.17 8.30L59.60 7.98L59.60 7.98Q58.85 7.55 58.62 7.36L58.62 7.36L58.62 7.36Q58.26 7.08 57.94 6.59L57.94 6.59L57.94 6.59Q57.63 6.10 57.63 5.46L57.63 5.46L57.63 5.46Q57.63 4.39 58.47 3.68L58.47 3.68L58.47 3.68Q59.32 2.97 60.42 2.97L60.42 2.97L60.42 2.97Q60.70 2.97 61.05 3.04L61.05 3.04L61.05 3.04Q61.25 3.08 61.58 3.17L61.58 3.17L61.82 3.25L61.82 3.25Q61.92 3.25 61.96 3.16L61.96 3.16L61.96 3.16Q62.02 3.05 62.02 2.98L62.02 2.98L62.03 2.88L62.51 2.85L62.72 5.41L62.21 5.43L62.09 4.18L62.09 4.18Q61.35 3.62 60.18 3.62L60.18 3.62L60.18 3.62Q59.54 3.62 59.04 4.05L59.04 4.05L59.04 4.05Q58.56 4.47 58.56 5.12L58.56 5.12L58.56 5.12Q58.56 5.72 59.01 6.17L59.01 6.17L59.01 6.17Q59.44 6.60 60.31 7.08L60.31 7.08L61.08 7.50L61.08 7.50Q62.03 8.03 62.56 8.59L62.56 8.59L62.56 8.59Q63.10 9.15 63.10 9.92L63.10 9.92L63.10 9.92Q63.10 10.99 62.24 11.76L62.24 11.76L62.24 11.76Q61.37 12.54 59.92 12.54L59.92 12.54L59.92 12.54Q59.36 12.54 58.85 12.41L58.85 12.41L58.85 12.41Q58.35 12.29 58.30 12.29L58.30 12.29L58.30 12.29Q58.04 12.29 58.04 12.58L58.04 12.58L58.06 12.76L57.58 12.80L57.58 12.80Q57.52 12.41 57.03 10.04ZM80.82 10.04L80.82 10.04L81.31 9.98L81.50 10.85L81.50 10.85Q81.61 11.33 81.68 11.41L81.68 11.41L81.68 11.41Q81.74 11.49 82.15 11.64L82.15 11.64L82.15 11.64Q83.00 11.95 83.89 11.95L83.89 11.95L83.89 11.95Q84.68 11.95 85.22 11.49L85.22 11.49L85.22 11.49Q85.75 11.04 85.75 10.26L85.75 10.26L85.75 10.26Q85.75 9.65 85.29 9.21L85.29 9.21L85.29 9.21Q84.81 8.76 83.96 8.30L83.96 8.30L83.38 7.98L83.38 7.98Q82.64 7.55 82.41 7.36L82.41 7.36L82.41 7.36Q82.04 7.08 81.73 6.59L81.73 6.59L81.73 6.59Q81.42 6.10 81.42 5.46L81.42 5.46L81.42 5.46Q81.42 4.39 82.26 3.68L82.26 3.68L82.26 3.68Q83.10 2.97 84.21 2.97L84.21 2.97L84.21 2.97Q84.49 2.97 84.84 3.04L84.84 3.04L84.84 3.04Q85.04 3.08 85.37 3.17L85.37 3.17L85.61 3.25L85.61 3.25Q85.71 3.25 85.75 3.16L85.75 3.16L85.75 3.16Q85.80 3.05 85.80 2.98L85.80 2.98L85.82 2.88L86.30 2.85L86.51 5.41L86.00 5.43L85.88 4.18L85.88 4.18Q85.13 3.62 83.97 3.62L83.97 3.62L83.97 3.62Q83.33 3.62 82.82 4.05L82.82 4.05L82.82 4.05Q82.35 4.47 82.35 5.12L82.35 5.12L82.35 5.12Q82.35 5.72 82.80 6.17L82.80 6.17L82.80 6.17Q83.23 6.60 84.10 7.08L84.10 7.08L84.87 7.50L84.87 7.50Q85.82 8.03 86.35 8.59L86.35 8.59L86.35 8.59Q86.88 9.15 86.88 9.92L86.88 9.92L86.88 9.92Q86.88 10.99 86.03 11.76L86.03 11.76L86.03 11.76Q85.16 12.54 83.71 12.54L83.71 12.54L83.71 12.54Q83.15 12.54 82.64 12.41L82.64 12.41L82.64 12.41Q82.14 12.29 82.09 12.29L82.09 12.29L82.09 12.29Q81.83 12.29 81.83 12.58L81.83 12.58L81.85 12.76L81.37 12.80L81.37 12.80Q81.31 12.41 80.82 10.04ZM95.45 3.64L95.07 3.64L95.07 3.08L98.43 3.08L98.44 3.64L97.91 3.64L97.91 3.64Q97.48 3.64 97.32 3.73L97.32 3.73L97.32 3.73Q97.15 3.83 97.15 4.16L97.15 4.16L97.15 9.33L97.15 9.33Q97.15 9.63 97.19 9.78L97.19 9.78L97.19 9.78Q97.23 10.01 97.39 10.41L97.39 10.41L97.39 10.41Q97.56 10.80 97.86 11.09L97.86 11.09L97.86 11.09Q98.16 11.40 98.72 11.63L98.72 11.63L98.72 11.63Q99.30 11.85 100.08 11.85L100.08 11.85L100.08 11.85Q100.93 11.85 101.48 11.67L101.48 11.67L101.48 11.67Q102.04 11.48 102.35 11.22L102.35 11.22L102.35 11.22Q102.66 10.96 102.80 10.49L102.80 10.49L102.80 10.49Q102.97 9.95 102.98 9.66L102.98 9.66L102.98 9.66Q103.00 9.18 103.01 8.67L103.01 8.67L103.01 4.14L103.01 4.14Q103.01 3.81 102.87 3.72L102.87 3.72L102.87 3.72Q102.72 3.64 102.24 3.64L102.24 3.64L101.75 3.64L101.77 3.08L104.41 3.08L104.41 3.64L104.21 3.64L104.21 3.64Q103.89 3.64 103.78 3.75L103.78 3.75L103.78 3.75Q103.67 3.86 103.67 4.25L103.67 4.25L103.67 9.22L103.67 9.22Q103.67 12.67 100.08 12.67L100.08 12.67L100.08 12.67Q97.91 12.67 96.96 11.76L96.96 11.76L96.96 11.76Q96.02 10.86 96.02 9.41L96.02 9.41L96.02 4.14L96.02 4.14Q96.02 3.81 95.92 3.72L95.92 3.72L95.92 3.72Q95.81 3.64 95.45 3.64L95.45 3.64ZM115.87 12.41L112.14 12.41L112.14 11.87L112.58 11.87L112.58 11.87Q112.96 11.87 113.01 11.81L113.01 11.81L113.01 11.81Q113.08 11.74 113.09 11.46L113.09 11.46L113.09 4.14L113.09 4.14Q113.09 3.81 113.00 3.72L113.00 3.72L113.00 3.72Q112.92 3.64 112.55 3.64L112.55 3.64L112.18 3.64L112.20 3.08L115.08 3.08L115.08 3.08Q116.23 3.08 116.88 3.19L116.88 3.19L116.88 3.19Q117.48 3.28 117.95 3.68L117.95 3.68L117.95 3.68Q119.14 4.64 119.14 6.19L119.14 6.19L119.14 6.19Q119.14 7.23 118.38 7.98L118.38 7.98L118.38 7.98Q117.60 8.74 116.19 8.73L116.19 8.73L116.19 8.73Q116.02 8.73 115.60 8.70L115.60 8.70L115.60 8.70Q115.49 8.69 115.07 8.62L115.07 8.62L115.07 8.62Q114.73 8.55 114.64 8.54L114.64 8.54L114.64 8.54Q114.34 8.47 114.33 8.46L114.33 8.46L114.21 8.44L114.21 11.46L114.21 11.46Q114.21 11.74 114.34 11.81L114.34 11.81L114.34 11.81Q114.45 11.87 115.17 11.87L115.17 11.87L115.87 11.87L115.87 12.41ZM114.21 4.28L114.21 8.02L114.21 8.02Q114.56 8.29 115.53 8.29L115.53 8.29L115.53 8.29Q116.67 8.29 117.24 7.75L117.24 7.75L117.24 7.75Q117.83 7.21 117.83 6.16L117.83 6.16L117.83 6.16Q117.83 4.98 116.92 4.31L116.92 4.31L116.92 4.31Q116.03 3.64 114.64 3.64L114.64 3.64L114.64 3.64Q114.39 3.64 114.30 3.75L114.30 3.75L114.30 3.75Q114.22 3.84 114.21 4.28L114.21 4.28ZM127.13 3.64L127.12 3.08L134.33 3.08L134.33 3.08Q134.35 4.14 134.40 5.28L134.40 5.28L133.85 5.30L133.85 5.30Q133.84 4.66 133.79 4.25L133.79 4.25L133.79 4.25Q133.75 3.89 133.69 3.80L133.69 3.80L133.69 3.80Q133.64 3.71 133.52 3.69L133.52 3.69L133.52 3.69Q133.42 3.68 132.84 3.68L132.84 3.68L130.46 3.68L130.46 3.68Q129.91 3.68 129.77 3.77L129.77 3.77L129.77 3.77Q129.64 3.86 129.64 4.33L129.64 4.33L129.64 6.28L129.64 6.28Q129.64 6.69 129.70 6.76L129.70 6.76L129.70 6.76Q129.77 6.84 130.11 6.84L130.11 6.84L132.22 6.84L132.22 6.84Q132.58 6.84 132.67 6.73L132.67 6.73L132.67 6.73Q132.75 6.63 132.75 6.14L132.75 6.14L132.75 5.61L133.27 5.63L133.27 8.97L132.75 8.97L132.75 8.24L132.75 8.24Q132.75 7.66 132.68 7.57L132.68 7.57L132.68 7.57Q132.60 7.46 132.25 7.46L132.25 7.46L130.15 7.46L130.15 7.46Q129.81 7.46 129.73 7.54L129.73 7.54L129.73 7.54Q129.64 7.63 129.64 7.89L129.64 7.89L129.64 11.20L129.64 11.20Q129.64 11.57 129.73 11.67L129.73 11.67L129.73 11.67Q129.81 11.77 130.09 11.77L130.09 11.77L130.09 11.77Q133.01 11.75 133.53 11.69L133.53 11.69L133.53 11.69Q134.05 11.63 134.13 11.38L134.13 11.38L134.14 11.36L134.15 11.35L134.37 10.17L134.85 10.25L134.50 12.41L127.40 12.41L127.40 11.87L127.77 11.87L127.77 11.87Q128.33 11.87 128.41 11.80L128.41 11.80L128.41 11.80Q128.51 11.72 128.51 11.33L128.51 11.33L128.51 4.24L128.51 4.24Q128.51 3.82 128.36 3.73L128.36 3.73L128.36 3.73Q128.19 3.64 127.53 3.64L127.53 3.64L127.13 3.64ZM143.06 3.64L142.67 3.64L142.69 3.08L145.91 3.08L145.91 3.08Q147.04 3.08 147.64 3.21L147.64 3.21L147.64 3.21Q148.29 3.37 148.75 3.75L148.75 3.75L148.75 3.75Q149.75 4.57 149.75 5.71L149.75 5.71L149.75 5.71Q149.75 6.43 149.28 7.04L149.28 7.04L149.28 7.04Q148.79 7.66 147.76 7.92L147.76 7.92L150.45 11.49L150.45 11.49Q150.75 11.87 151.05 11.87L151.05 11.87L151.65 11.87L151.68 12.41L149.65 12.41L146.65 8.10L146.48 8.10L146.48 8.10Q146.44 8.10 146.38 8.11L146.38 8.11L146.38 8.11Q146.33 8.11 146.32 8.11L146.32 8.11L146.32 8.11Q145.43 8.11 145.04 8.03L145.04 8.03L145.04 11.46L145.04 11.46Q145.04 11.76 145.18 11.81L145.18 11.81L145.18 11.81Q145.30 11.87 146.01 11.87L146.01 11.87L146.72 11.87L146.69 12.41L142.97 12.41L142.97 11.87L143.29 11.87L143.29 11.87Q143.75 11.87 143.82 11.81L143.82 11.81L143.82 11.81Q143.90 11.74 143.90 11.46L143.90 11.46L143.90 4.14L143.90 4.14Q143.90 3.82 143.71 3.73L143.71 3.73L143.71 3.73Q143.49 3.64 143.06 3.64L143.06 3.64ZM145.04 4.28L145.04 7.57L145.04 7.57Q145.22 7.70 145.93 7.71L145.93 7.71L145.93 7.71Q147.21 7.71 147.79 7.27L147.79 7.27L147.79 7.27Q148.37 6.84 148.37 5.92L148.37 5.92L148.37 5.92Q148.37 4.92 147.60 4.27L147.60 4.27L147.60 4.27Q146.84 3.64 145.46 3.64L145.46 3.64L145.46 3.64Q145.21 3.64 145.13 3.75L145.13 3.75L145.13 3.75Q145.04 3.84 145.04 4.28L145.04 4.28ZM159.81 8.02L159.81 8.02L159.81 8.02Q159.81 6.86 160.28 5.83L160.28 5.83L160.28 5.83Q160.75 4.85 161.50 4.27L161.50 4.27L161.50 4.27Q162.24 3.69 163.14 3.37L163.14 3.37L163.14 3.37Q164.04 3.05 164.88 3.05L164.88 3.05L164.88 3.05Q165.74 3.05 166.41 3.16L166.41 3.16L166.41 3.16Q167.04 3.26 167.34 3.37L167.34 3.37L167.34 3.37Q167.64 3.48 167.68 3.48L167.68 3.48L167.68 3.48Q167.85 3.48 167.87 3.41L167.87 3.41L167.87 3.41Q167.90 3.33 167.90 3.09L167.90 3.09L167.90 2.97L168.43 2.97L168.43 2.97Q168.47 4.30 168.60 5.64L168.60 5.64L168.10 5.65L168.10 5.65Q168.07 5.40 168.05 5.26L168.05 5.26L168.05 5.26Q168.05 5.20 168.05 5.13L168.05 5.13L168.05 5.13Q168.04 5.07 168.03 5.02L168.03 5.02L168.03 5.02Q168.03 4.98 168.03 4.95L168.03 4.95L168.03 4.95Q168 4.84 168 4.74L168 4.74L168 4.74Q168 4.68 167.96 4.59L167.96 4.59L167.96 4.59Q167.96 4.57 167.93 4.55L167.93 4.55L167.93 4.55Q167.90 4.52 167.90 4.50L167.90 4.50L167.90 4.50Q167.87 4.44 167.80 4.41L167.80 4.41L167.80 4.41Q167.76 4.38 167.73 4.37L167.73 4.37L167.73 4.37Q167.71 4.36 167.68 4.35L167.68 4.35L167.68 4.35Q167.67 4.35 167.64 4.33L167.64 4.33L167.64 4.33Q167.62 4.31 167.58 4.29L167.58 4.29L167.58 4.29Q167.54 4.27 167.49 4.25L167.49 4.25L167.49 4.25Q167.27 4.16 167.24 4.14L167.24 4.14L167.24 4.14Q166.89 3.96 166.25 3.83L166.25 3.83L166.25 3.83Q165.58 3.71 164.92 3.71L164.92 3.71L164.92 3.71Q163.19 3.71 162.10 4.84L162.10 4.84L162.10 4.84Q160.99 5.99 161 7.62L161 7.62L161 7.62Q161 9.35 162.22 10.69L162.22 10.69L162.22 10.69Q163.42 12.02 165.24 12.02L165.24 12.02L165.24 12.02Q166.24 12.02 167.19 11.49L167.19 11.49L167.19 11.49Q168.14 10.94 168.16 10.58L168.16 10.58L168.21 9.41L168.70 9.41L168.62 11.45L168.62 11.45Q168.55 11.49 168.42 11.57L168.42 11.57L168.42 11.57Q168.36 11.60 167.90 11.85L167.90 11.85L167.90 11.85Q167.52 12.05 167.08 12.23L167.08 12.23L167.08 12.23Q166.71 12.39 166.07 12.51L166.07 12.51L166.07 12.51Q165.46 12.63 164.89 12.64L164.89 12.64L164.89 12.64Q162.51 12.64 161.15 11.39L161.15 11.39L161.15 11.39Q159.81 10.14 159.81 8.02ZM177.06 3.64L176.67 3.64L176.69 3.08L179.91 3.08L179.91 3.08Q181.04 3.08 181.64 3.21L181.64 3.21L181.64 3.21Q182.29 3.37 182.75 3.75L182.75 3.75L182.75 3.75Q183.76 4.57 183.76 5.71L183.76 5.71L183.76 5.71Q183.76 6.43 183.29 7.04L183.29 7.04L183.29 7.04Q182.79 7.66 181.76 7.92L181.76 7.92L184.45 11.49L184.45 11.49Q184.75 11.87 185.05 11.87L185.05 11.87L185.65 11.87L185.68 12.41L183.65 12.41L180.65 8.10L180.48 8.10L180.48 8.10Q180.44 8.10 180.39 8.11L180.39 8.11L180.39 8.11Q180.33 8.11 180.32 8.11L180.32 8.11L180.32 8.11Q179.44 8.11 179.04 8.03L179.04 8.03L179.04 11.46L179.04 11.46Q179.04 11.76 179.18 11.81L179.18 11.81L179.18 11.81Q179.31 11.87 180.01 11.87L180.01 11.87L180.72 11.87L180.69 12.41L176.97 12.41L176.97 11.87L177.29 11.87L177.29 11.87Q177.75 11.87 177.82 11.81L177.82 11.81L177.82 11.81Q177.91 11.74 177.91 11.46L177.91 11.46L177.91 4.14L177.91 4.14Q177.91 3.82 177.71 3.73L177.71 3.73L177.71 3.73Q177.49 3.64 177.06 3.64L177.06 3.64ZM179.04 4.28L179.04 7.57L179.04 7.57Q179.22 7.70 179.94 7.71L179.94 7.71L179.94 7.71Q181.21 7.71 181.79 7.27L181.79 7.27L181.79 7.27Q182.38 6.84 182.38 5.92L182.38 5.92L182.38 5.92Q182.38 4.92 181.60 4.27L181.60 4.27L181.60 4.27Q180.84 3.64 179.46 3.64L179.46 3.64L179.46 3.64Q179.21 3.64 179.13 3.75L179.13 3.75L179.13 3.75Q179.05 3.84 179.04 4.28L179.04 4.28ZM193.81 3.64L193.43 3.64L193.43 3.08L196.79 3.08L196.81 3.64L196.27 3.64L196.27 3.64Q195.84 3.64 195.69 3.73L195.69 3.73L195.69 3.73Q195.51 3.83 195.51 4.16L195.51 4.16L195.51 9.33L195.51 9.33Q195.51 9.63 195.55 9.78L195.55 9.78L195.55 9.78Q195.59 10.01 195.75 10.41L195.75 10.41L195.75 10.41Q195.92 10.80 196.22 11.09L196.22 11.09L196.22 11.09Q196.53 11.40 197.09 11.63L197.09 11.63L197.09 11.63Q197.66 11.85 198.44 11.85L198.44 11.85L198.44 11.85Q199.29 11.85 199.84 11.67L199.84 11.67L199.84 11.67Q200.40 11.48 200.71 11.22L200.71 11.22L200.71 11.22Q201.02 10.96 201.16 10.49L201.16 10.49L201.16 10.49Q201.33 9.95 201.34 9.66L201.34 9.66L201.34 9.66Q201.37 9.18 201.37 8.67L201.37 8.67L201.37 4.14L201.37 4.14Q201.37 3.81 201.23 3.72L201.23 3.72L201.23 3.72Q201.08 3.64 200.60 3.64L200.60 3.64L200.11 3.64L200.14 3.08L202.77 3.08L202.77 3.64L202.58 3.64L202.58 3.64Q202.25 3.64 202.14 3.75L202.14 3.75L202.14 3.75Q202.03 3.86 202.03 4.25L202.03 4.25L202.03 9.22L202.03 9.22Q202.03 12.67 198.44 12.67L198.44 12.67L198.44 12.67Q196.27 12.67 195.32 11.76L195.32 11.76L195.32 11.76Q194.39 10.86 194.39 9.41L194.39 9.41L194.39 4.14L194.39 4.14Q194.39 3.81 194.28 3.72L194.28 3.72L194.28 3.72Q194.17 3.64 193.81 3.64L193.81 3.64ZM211.09 3.64L210.51 3.64L210.52 3.08L214.03 3.08L214.03 3.64L213.80 3.64L213.80 3.64Q213.25 3.64 213.08 3.73L213.08 3.73L213.08 3.73Q212.95 3.81 212.95 4.28L212.95 4.28L212.95 11.22L212.95 11.22Q212.95 11.68 213.06 11.77L213.06 11.77L213.06 11.77Q213.17 11.87 213.70 11.87L213.70 11.87L214.25 11.87L214.26 12.41L210.68 12.41L210.66 11.87L211.03 11.87L211.03 11.87Q211.59 11.87 211.70 11.77L211.70 11.77L211.70 11.77Q211.81 11.67 211.81 11.25L211.81 11.25L211.81 4.14L211.81 4.14Q211.81 3.77 211.71 3.71L211.71 3.71L211.71 3.71Q211.60 3.64 211.09 3.64L211.09 3.64ZM221.97 10.04L221.97 10.04L222.46 9.98L222.65 10.85L222.65 10.85Q222.76 11.33 222.82 11.41L222.82 11.41L222.82 11.41Q222.89 11.49 223.30 11.64L223.30 11.64L223.30 11.64Q224.14 11.95 225.04 11.95L225.04 11.95L225.04 11.95Q225.83 11.95 226.37 11.49L226.37 11.49L226.37 11.49Q226.90 11.04 226.90 10.26L226.90 10.26L226.90 10.26Q226.90 9.65 226.44 9.21L226.44 9.21L226.44 9.21Q225.96 8.76 225.11 8.30L225.11 8.30L224.53 7.98L224.53 7.98Q223.79 7.55 223.56 7.36L223.56 7.36L223.56 7.36Q223.19 7.08 222.88 6.59L222.88 6.59L222.88 6.59Q222.57 6.10 222.57 5.46L222.57 5.46L222.57 5.46Q222.57 4.39 223.41 3.68L223.41 3.68L223.41 3.68Q224.25 2.97 225.36 2.97L225.36 2.97L225.36 2.97Q225.64 2.97 225.99 3.04L225.99 3.04L225.99 3.04Q226.19 3.08 226.52 3.17L226.52 3.17L226.76 3.25L226.76 3.25Q226.86 3.25 226.90 3.16L226.90 3.16L226.90 3.16Q226.95 3.05 226.95 2.98L226.95 2.98L226.97 2.88L227.45 2.85L227.66 5.41L227.15 5.43L227.03 4.18L227.03 4.18Q226.28 3.62 225.12 3.62L225.12 3.62L225.12 3.62Q224.48 3.62 223.97 4.05L223.97 4.05L223.97 4.05Q223.49 4.47 223.49 5.12L223.49 5.12L223.49 5.12Q223.49 5.72 223.95 6.17L223.95 6.17L223.95 6.17Q224.38 6.60 225.24 7.08L225.24 7.08L226.02 7.50L226.02 7.50Q226.97 8.03 227.50 8.59L227.50 8.59L227.50 8.59Q228.03 9.15 228.03 9.92L228.03 9.92L228.03 9.92Q228.03 10.99 227.18 11.76L227.18 11.76L227.18 11.76Q226.31 12.54 224.85 12.54L224.85 12.54L224.85 12.54Q224.29 12.54 223.79 12.41L223.79 12.41L223.79 12.41Q223.29 12.29 223.23 12.29L223.23 12.29L223.23 12.29Q222.98 12.29 222.98 12.58L222.98 12.58L223.00 12.76L222.52 12.80L222.52 12.80Q222.46 12.41 221.97 10.04ZM236.23 3.64L236.22 3.08L243.43 3.08L243.43 3.08Q243.44 4.14 243.50 5.28L243.50 5.28L242.95 5.30L242.95 5.30Q242.94 4.66 242.88 4.25L242.88 4.25L242.88 4.25Q242.84 3.89 242.79 3.80L242.79 3.80L242.79 3.80Q242.73 3.71 242.61 3.69L242.61 3.69L242.61 3.69Q242.52 3.68 241.93 3.68L241.93 3.68L239.55 3.68L239.55 3.68Q239.00 3.68 238.86 3.77L238.86 3.77L238.86 3.77Q238.74 3.86 238.74 4.33L238.74 4.33L238.74 6.28L238.74 6.28Q238.74 6.69 238.79 6.76L238.79 6.76L238.79 6.76Q238.86 6.84 239.20 6.84L239.20 6.84L241.32 6.84L241.32 6.84Q241.68 6.84 241.76 6.73L241.76 6.73L241.76 6.73Q241.84 6.63 241.85 6.14L241.85 6.14L241.85 5.61L242.36 5.63L242.36 8.97L241.85 8.97L241.85 8.24L241.85 8.24Q241.85 7.66 241.77 7.57L241.77 7.57L241.77 7.57Q241.69 7.46 241.34 7.46L241.34 7.46L239.24 7.46L239.24 7.46Q238.91 7.46 238.82 7.54L238.82 7.54L238.82 7.54Q238.74 7.63 238.74 7.89L238.74 7.89L238.74 11.20L238.74 11.20Q238.74 11.57 238.82 11.67L238.82 11.67L238.82 11.67Q238.91 11.77 239.18 11.77L239.18 11.77L239.18 11.77Q242.10 11.75 242.63 11.69L242.63 11.69L242.63 11.69Q243.15 11.63 243.23 11.38L243.23 11.38L243.24 11.36L243.24 11.35L243.47 10.17L243.95 10.25L243.60 12.41L236.50 12.41L236.50 11.87L236.87 11.87L236.87 11.87Q237.43 11.87 237.51 11.80L237.51 11.80L237.51 11.80Q237.60 11.72 237.60 11.33L237.60 11.33L237.60 4.24L237.60 4.24Q237.60 3.82 237.45 3.73L237.45 3.73L237.45 3.73Q237.28 3.64 236.63 3.64L236.63 3.64L236.23 3.64ZM252.98 11.94L252.98 11.94L252.98 11.94Q252.98 11.80 253.22 11.57L253.22 11.57L253.22 11.57Q253.46 11.35 253.59 11.35L253.59 11.35L253.59 11.35Q253.76 11.35 253.97 11.57L253.97 11.57L253.97 11.57Q254.18 11.81 254.17 11.95L254.17 11.95L254.17 11.95Q254.17 12.11 253.95 12.33L253.95 12.33L253.95 12.33Q253.73 12.55 253.57 12.55L253.57 12.55L253.57 12.55Q253.44 12.55 253.21 12.33L253.21 12.33L253.21 12.33Q252.98 12.11 252.98 11.94ZM253.00 3.73L253.00 3.73L253.00 3.73Q253.00 3.47 253.35 3.37L253.35 3.37L253.35 3.37Q253.69 3.27 253.92 3.27L253.92 3.27L253.92 3.27Q254.11 3.27 254.11 3.42L254.11 3.42L254.11 3.42Q254.08 4.42 253.92 6.17L253.92 6.17L253.92 6.17Q253.74 8.15 253.73 8.86L253.73 8.86L253.73 9.24L253.73 9.24Q253.73 9.30 253.72 9.42L253.72 9.42L253.72 9.42Q253.72 9.53 253.72 9.56L253.72 9.56L253.72 9.81L253.72 9.81Q253.72 9.93 253.69 10.02L253.69 10.02L253.69 10.02Q253.69 10.04 253.67 10.09L253.67 10.09L253.67 10.09Q253.66 10.14 253.65 10.16L253.65 10.16L253.65 10.16Q253.62 10.23 253.57 10.26L253.57 10.26L253.57 10.26Q253.52 10.29 253.48 10.29L253.48 10.29L253.48 10.29Q253.42 10.29 253.38 10.25L253.38 10.25L253.38 10.25Q253.33 10.21 253.31 10.13L253.31 10.13L253.31 10.13Q253.29 10.12 253.29 10.08L253.29 10.08L253.29 10.08Q253.29 10.04 253.28 10.01L253.28 10.01L253.28 10.01Q253.25 9.93 253.25 9.85L253.25 9.85L253.25 9.78L253.25 9.78Q253.00 6.65 253.00 3.73Z"></path></g></svg>